<svg width="30" height="25" fill="none" xmlns="http://www.w3.org/2000/svg"><g fill="#757575"><path d="M21 7.748c2.387 0 4.676.816 6.364 2.27C29.052 11.47 30 13.44 30 15.495v9.04h-6v-9.04c0-.685-.316-1.342-.879-1.826-.562-.484-1.325-.756-2.121-.756s-1.559.272-2.121.756c-.563.484-.879 1.141-.879 1.826v9.04h-6v-9.04c0-2.055.948-4.026 2.636-5.479C16.324 8.565 18.613 7.748 21 7.748ZM6 9.04H0v15.496h6V9.04ZM3 5.166c1.657 0 3-1.157 3-2.583C6 1.156 4.657 0 3 0S0 1.156 0 2.583c0 1.426 1.343 2.583 3 2.583Z"/></g></svg>