<svg width="50" height="50" fill="none" xmlns="http://www.w3.org/2000/svg"><circle cx="25" cy="25" r="25" fill="#FFA800"/><path d="M16.75 28.903H15.5c-.663 0-1.299-.24-1.768-.665A2.172 2.172 0 0 1 13 26.63v-11.36c0-.602.263-1.18.732-1.606A2.633 2.633 0 0 1 15.5 13h20c.663 0 1.299.24 1.768.665.469.427.732 1.004.732 1.607v11.36c0 .602-.263 1.18-.732 1.606a2.633 2.633 0 0 1-1.768.665h-1.25M25.25 30l6.25 6.816H19L25.25 30Z" stroke="#fff" stroke-width="3" stroke-linecap="round" stroke-linejoin="round"/></svg>