<svg width="35" height="25" fill="none" xmlns="http://www.w3.org/2000/svg"><path d="M35 .014a18.655 18.655 0 0 1-4.995 2.092c-.959-.947-2.232-1.618-3.648-1.923a8.231 8.231 0 0 0-4.272.22C20.721.85 19.55 1.647 18.73 2.685c-.82 1.039-1.25 2.268-1.23 3.523v1.367c-2.796.063-5.566-.47-8.064-1.55C6.938 4.942 4.789 3.347 3.182 1.38c0 0-6.364 12.307 7.954 17.776C7.86 21.07 3.956 22.027 0 21.892c14.318 6.837 31.818 0 31.818-15.725a5.321 5.321 0 0 0-.127-1.135C33.315 3.656 34.46 1.918 35 .014Z" fill="#FFA800"/></svg>